{
  "accessors": [
    {
      "bufferView": 2,
      "componentType": 5126,
      "count": 65532,
      "max": [
        0.6601043343544006,
        0.893875002861023,
        0.11060409247875214
      ],
      "min": [
        -0.9874134659767151,
        -0.9876272678375244,
        -0.48044946789741516
      ],
      "type": "VEC3"
    },
    {
      "bufferView": 2,
      "byteOffset": 786384,
      "componentType": 5126,
      "count": 65532,
      "max": [
        0.9921039938926697,
        0.9999953508377075,
        1.0
      ],
      "min": [
        -0.9975077509880066,
        -0.9976389408111572,
        -0.993309736251831
      ],
      "type": "VEC3"
    },
    {
      "bufferView": 1,
      "componentType": 5126,
      "count": 65532,
      "max": [
        0.8300495743751526,
        0.9468954205513
      ],
      "min": [
        0.006295088212937117,
        0.006269756238907576
      ],
      "type": "VEC2"
    },
    {
      "bufferView": 0,
      "componentType": 5125,
      "count": 344031,
      "type": "SCALAR"
    },
    {
      "bufferView": 2,
      "byteOffset": 1572768,
      "componentType": 5126,
      "count": 65532,
      "max": [
        0.42533138394355774,
        0.9267752766609192,
        0.36940622329711914
      ],
      "min": [
        -0.6550677418708801,
        -0.9639662504196167,
        -0.47929486632347107
      ],
      "type": "VEC3"
    },
    {
      "bufferView": 2,
      "byteOffset": 2359152,
      "componentType": 5126,
      "count": 65532,
      "max": [
        0.9966983199119568,
        0.9974154829978943,
        1.0
      ],
      "min": [
        -0.9991884231567383,
        -0.9990161061286926,
        -0.49880218505859375
      ],
      "type": "VEC3"
    },
    {
      "bufferView": 1,
      "byteOffset": 524256,
      "componentType": 5126,
      "count": 65532,
      "max": [
        0.7126094102859497,
        0.9633017778396606
      ],
      "min": [
        0.17243286967277527,
        0.01797385700047016
      ],
      "type": "VEC2"
    },
    {
      "bufferView": 0,
      "byteOffset": 1376124,
      "componentType": 5125,
      "count": 346287,
      "type": "SCALAR"
    },
    {
      "bufferView": 2,
      "byteOffset": 3145536,
      "componentType": 5126,
      "count": 65532,
      "max": [
        0.9874714016914368,
        0.7999793291091919,
        0.4180740714073181
      ],
      "min": [
        -0.8740071058273315,
        -0.9875814914703369,
        -0.46878311038017273
      ],
      "type": "VEC3"
    },
    {
      "bufferView": 2,
      "byteOffset": 3931920,
      "componentType": 5126,
      "count": 65532,
      "max": [
        0.9986057877540588,
        0.9976561665534973,
        1.0
      ],
      "min": [
        -0.9986922144889832,
        -0.999692440032959,
        -0.8164247870445251
      ],
      "type": "VEC3"
    },
    {
      "bufferView": 1,
      "byteOffset": 1048512,
      "componentType": 5126,
      "count": 65532,
      "max": [
        0.9935029745101929,
        0.89986652135849
      ],
      "min": [
        0.06300651282072067,
        0.006432430353015661
      ],
      "type": "VEC2"
    },
    {
      "bufferView": 0,
      "byteOffset": 2761272,
      "componentType": 5125,
      "count": 358698,
      "type": "SCALAR"
    },
    {
      "bufferView": 2,
      "byteOffset": 4718304,
      "componentType": 5126,
      "count": 65532,
      "max": [
        0.9873635172843933,
        0.9869305491447449,
        0.49815595149993896
      ],
      "min": [
        -0.9872978925704956,
        -0.7501705288887024,
        -0.46889591217041016
      ],
      "type": "VEC3"
    },
    {
      "bufferView": 2,
      "byteOffset": 5504688,
      "componentType": 5126,
      "count": 65532,
      "max": [
        0.9995615482330322,
        0.9976478815078735,
        1.0
      ],
      "min": [
        -0.9986922144889832,
        -0.9981735348701477,
        -0.44213929772377014
      ],
      "type": "VEC3"
    },
    {
      "bufferView": 1,
      "byteOffset": 1572768,
      "componentType": 5126,
      "count": 65532,
      "max": [
        0.9935669898986816,
        0.9934822916984558
      ],
      "min": [
        0.006534104235470295,
        0.12501908838748932
      ],
      "type": "VEC2"
    },
    {
      "bufferView": 0,
      "byteOffset": 4196064,
      "componentType": 5125,
      "count": 359214,
      "type": "SCALAR"
    },
    {
      "bufferView": 2,
      "byteOffset": 6291072,
      "componentType": 5126,
      "count": 65532,
      "max": [
        0.9486384987831116,
        0.987460196018219,
        0.033069513738155365
      ],
      "min": [
        -0.9874082803726196,
        -0.9870094656944275,
        -0.4689285457134247
      ],
      "type": "VEC3"
    },
    {
      "bufferView": 2,
      "byteOffset": 7077456,
      "componentType": 5126,
      "count": 65532,
      "max": [
        0.9991352558135986,
        0.9990257620811462,
        1.0
      ],
      "min": [
        -0.9957273006439209,
        -0.9985334873199463,
        -0.6008927822113037
      ],
      "type": "VEC3"
    },
    {
      "bufferView": 1,
      "byteOffset": 2097024,
      "componentType": 5126,
      "count": 65532,
      "max": [
        0.9741235375404358,
        0.9937273263931274
      ],
      "min": [
        0.006327180657535791,
        0.00652445200830698
      ],
      "type": "VEC2"
    },
    {
      "bufferView": 0,
      "byteOffset": 5632920,
      "componentType": 5125,
      "count": 342624,
      "type": "SCALAR"
    },
    {
      "bufferView": 2,
      "byteOffset": 7863840,
      "componentType": 5126,
      "count": 65532,
      "max": [
        0.31226032972335815,
        0.9635827541351318,
        0.36940622329711914
      ],
      "min": [
        -0.8077641725540161,
        -0.9869415760040283,
        -0.48044946789741516
      ],
      "type": "VEC3"
    },
    {
      "bufferView": 2,
      "byteOffset": 8650224,
      "componentType": 5126,
      "count": 65532,
      "max": [
        0.9940226674079895,
        0.9951534271240234,
        1.0
      ],
      "min": [
        -0.9977303743362427,
        -0.9950808882713318,
        -0.5876293778419495
      ],
      "type": "VEC3"
    },
    {
      "bufferView": 1,
      "byteOffset": 2621280,
      "componentType": 5126,
      "count": 65532,
      "max": [
        0.6560871005058289,
        0.981666088104248
      ],
      "min": [
        0.09616520255804062,
        0.006530794780701399
      ],
      "type": "VEC2"
    },
    {
      "bufferView": 0,
      "byteOffset": 7003416,
      "componentType": 5125,
      "count": 277980,
      "type": "SCALAR"
    },
    {
      "bufferView": 2,
      "byteOffset": 9436608,
      "componentType": 5126,
      "count": 52331,
      "max": [
        0.9871159195899963,
        0.9870559573173523,
        0.47854945063591003
      ],
      "min": [
        -0.987043559551239,
        -0.9874100089073181,
        -0.46896958351135254
      ],
      "type": "VEC3"
    },
    {
      "bufferView": 2,
      "byteOffset": 10064580,
      "componentType": 5126,
      "count": 52331,
      "max": [
        0.9986057877540588,
        0.9968289136886597,
        1.0
      ],
      "min": [
        -0.996340274810791,
        -0.9979378581047058,
        -0.8148630261421204
      ],
      "type": "VEC3"
    },
    {
      "bufferView": 1,
      "byteOffset": 3145536,
      "componentType": 5126,
      "count": 52331,
      "max": [
        0.993475079536438,
        0.9935184121131897
      ],
      "min": [
        0.006535725202411413,
        0.006432430353015661
      ],
      "type": "VEC2"
    },
    {
      "bufferView": 0,
      "byteOffset": 8115336,
      "componentType": 5125,
      "count": 160059,
      "type": "SCALAR"
    }
  ],
  "asset": {
    "extras": {
      "author": "Šimon Ustal (https://sketchfab.com/simonustal)",
      "license": "CC-BY-4.0 (http://creativecommons.org/licenses/by/4.0/)",
      "source": "https://sketchfab.com/3d-models/grassy-mountains-with-lakes-408364942d794699bbf99aaced81881d",
      "title": "Grassy Mountains with Lakes"
    },
    "generator": "Sketchfab-12.68.0",
    "version": "2.0"
  },
  "bufferViews": [
    {
      "buffer": 0,
      "byteLength": 8755572,
      "name": "floatBufferViews",
      "target": 34963
    },
    {
      "buffer": 0,
      "byteLength": 3564184,
      "byteOffset": 8755572,
      "byteStride": 8,
      "name": "floatBufferViews",
      "target": 34962
    },
    {
      "buffer": 0,
      "byteLength": 10692552,
      "byteOffset": 12319756,
      "byteStride": 12,
      "name": "floatBufferViews",
      "target": 34962
    }
  ],
  "buffers": [
    {
      "byteLength": 23012308,
      "uri": "scene.bin"
    }
  ],
  "images": [
    {
      "uri": "textures/Material.001_baseColor.png"
    },
    {
      "uri": "textures/Material.001_metallicRoughness.png"
    }
  ],
  "materials": [
    {
      "doubleSided": true,
      "name": "Material.001",
      "occlusionTexture": {
        "index": 1
      },
      "pbrMetallicRoughness": {
        "baseColorTexture": {
          "index": 0
        },
        "metallicFactor": 0.6887696161586683,
        "metallicRoughnessTexture": {
          "index": 1
        },
        "roughnessFactor": 0.8346937720786288
      }
    }
  ],
  "meshes": [
    {
      "name": "Plane_Material.001_0",
      "primitives": [
        {
          "attributes": {
            "NORMAL": 1,
            "POSITION": 0,
            "TEXCOORD_0": 2
          },
          "indices": 3,
          "material": 0,
          "mode": 4
        }
      ]
    },
    {
      "name": "Plane_Material.001_0",
      "primitives": [
        {
          "attributes": {
            "NORMAL": 5,
            "POSITION": 4,
            "TEXCOORD_0": 6
          },
          "indices": 7,
          "material": 0,
          "mode": 4
        }
      ]
    },
    {
      "name": "Plane_Material.001_0",
      "primitives": [
        {
          "attributes": {
            "NORMAL": 9,
            "POSITION": 8,
            "TEXCOORD_0": 10
          },
          "indices": 11,
          "material": 0,
          "mode": 4
        }
      ]
    },
    {
      "name": "Plane_Material.001_0",
      "primitives": [
        {
          "attributes": {
            "NORMAL": 13,
            "POSITION": 12,
            "TEXCOORD_0": 14
          },
          "indices": 15,
          "material": 0,
          "mode": 4
        }
      ]
    },
    {
      "name": "Plane_Material.001_0",
      "primitives": [
        {
          "attributes": {
            "NORMAL": 17,
            "POSITION": 16,
            "TEXCOORD_0": 18
          },
          "indices": 19,
          "material": 0,
          "mode": 4
        }
      ]
    },
    {
      "name": "Plane_Material.001_0",
      "primitives": [
        {
          "attributes": {
            "NORMAL": 21,
            "POSITION": 20,
            "TEXCOORD_0": 22
          },
          "indices": 23,
          "material": 0,
          "mode": 4
        }
      ]
    },
    {
      "name": "Plane_Material.001_0",
      "primitives": [
        {
          "attributes": {
            "NORMAL": 25,
            "POSITION": 24,
            "TEXCOORD_0": 26
          },
          "indices": 27,
          "material": 0,
          "mode": 4
        }
      ]
    }
  ],
  "nodes": [
    {
      "children": [
        1
      ],
      "matrix": [
        1.0,
        0.0,
        0.0,
        0.0,
        0.0,
        2.220446049250313e-16,
        -1.0,
        0.0,
        0.0,
        1.0,
        2.220446049250313e-16,
        0.0,
        0.0,
        0.0,
        0.0,
        1.0
      ],
      "name": "Sketchfab_model"
    },
    {
      "children": [
        2
      ],
      "matrix": [
        0.009999999776482582,
        0.0,
        0.0,
        0.0,
        0.0,
        0.0,
        0.009999999776482582,
        0.0,
        0.0,
        -0.009999999776482582,
        0.0,
        0.0,
        0.0,
        0.0,
        0.0,
        1.0
      ],
      "name": "c22162c3f14549b0ba081004adc00733.fbx"
    },
    {
      "children": [
        3,
        6,
        8
      ],
      "name": "RootNode"
    },
    {
      "children": [
        4
      ],
      "matrix": [
        -29.08647719990347,
        -5.518906457566863,
        -95.51711910171437,
        0.0,
        56.63930913109449,
        79.46723428563203,
        -21.83912397841966,
        0.0,
        77.11008775993375,
        -60.45246356562044,
        -19.98834696773717,
        0.0,
        407.6245422363281,
        590.38623046875,
        -100.54539489746094,
        1.0
      ],
      "name": "Light"
    },
    {
      "children": [
        5
      ],
      "matrix": [
        1.0,
        0.0,
        0.0,
        0.0,
        0.0,
        2.220446049250313e-16,
        1.0,
        0.0,
        0.0,
        -1.0,
        2.220446049250313e-16,
        0.0,
        0.0,
        0.0,
        0.0,
        1.0
      ],
      "name": "Object_4"
    },
    {
      "name": "Object_5"
    },
    {
      "children": [
        7
      ],
      "matrix": [
        -65.15581009765468,
        -44.527143038140764,
        -61.41704928909654,
        0.0,
        -32.40135466989878,
        89.5395708958271,
        -30.542085476036902,
        0.0,
        68.59207001076176,
        1.2755314797120858e-05,
        -72.76761921184276,
        0.0,
        735.88916015625,
        495.8309326171875,
        692.5791015625,
        1.0
      ],
      "name": "Camera"
    },
    {
      "name": "Object_7"
    },
    {
      "children": [
        9,
        10,
        11,
        12,
        13,
        14,
        15
      ],
      "matrix": [
        514.4345703125,
        0.0,
        0.0,
        0.0,
        0.0,
        -8.381202969795737e-05,
        -514.4345703124932,
        0.0,
        0.0,
        125.85586547851396,
        -2.0504523109206707e-05,
        0.0,
        0.0,
        0.0,
        0.0,
        1.0
      ],
      "name": "Plane"
    },
    {
      "mesh": 0,
      "name": "Plane_Material.001_0"
    },
    {
      "mesh": 1,
      "name": "Plane_Material.001_0"
    },
    {
      "mesh": 2,
      "name": "Plane_Material.001_0"
    },
    {
      "mesh": 3,
      "name": "Plane_Material.001_0"
    },
    {
      "mesh": 4,
      "name": "Plane_Material.001_0"
    },
    {
      "mesh": 5,
      "name": "Plane_Material.001_0"
    },
    {
      "mesh": 6,
      "name": "Plane_Material.001_0"
    }
  ],
  "samplers": [
    {
      "magFilter": 9729,
      "minFilter": 9987,
      "wrapS": 10497,
      "wrapT": 10497
    }
  ],
  "scene": 0,
  "scenes": [
    {
      "name": "Sketchfab_Scene",
      "nodes": [
        0
      ]
    }
  ],
  "textures": [
    {
      "sampler": 0,
      "source": 0
    },
    {
      "sampler": 0,
      "source": 1
    }
  ]
}
