{
  "accessors": [
    {
      "bufferView": 2,
      "componentType": 5126,
      "count": 65532,
      "max": [
        1.0,
        0.39726030826568604,
        0.40846890211105347
      ],
      "min": [
        -1.0,
        -1.0,
        0.06305348873138428
      ],
      "type": "VEC3"
    },
    {
      "bufferView": 2,
      "byteOffset": 786384,
      "componentType": 5126,
      "count": 65532,
      "max": [
        0.8467965722084045,
        0.854387640953064,
        0.9999988675117493
      ],
      "min": [
        -0.8899535536766052,
        -0.8422637581825256,
        0.3819772005081177
      ],
      "type": "VEC3"
    },
    {
      "bufferView": 3,
      "componentType": 5126,
      "count": 65532,
      "max": [
        1.0,
        1.2479332326620352e-05,
        0.9086424708366394,
        1.0
      ],
      "min": [
        0.41757500171661377,
        -1.1681448995659593e-05,
        -0.847360372543335,
        1.0
      ],
      "type": "VEC4"
    },
    {
      "bufferView": 1,
      "componentType": 5126,
      "count": 65532,
      "max": [
        1.0,
        0.6992188096046448
      ],
      "min": [
        0.001953125,
        0.001953125
      ],
      "type": "VEC2"
    },
    {
      "bufferView": 0,
      "componentType": 5125,
      "count": 361662,
      "type": "SCALAR"
    },
    {
      "bufferView": 2,
      "byteOffset": 1572768,
      "componentType": 5126,
      "count": 65532,
      "max": [
        1.0,
        1.0,
        0.2317236065864563
      ],
      "min": [
        -1.0,
        0.3307240903377533,
        0.0656791403889656
      ],
      "type": "VEC3"
    },
    {
      "bufferView": 2,
      "byteOffset": 2359152,
      "componentType": 5126,
      "count": 65532,
      "max": [
        0.9330821633338928,
        0.8701168894767761,
        0.9999979734420776
      ],
      "min": [
        -0.8347691893577576,
        -0.8326783776283264,
        0.28001949191093445
      ],
      "type": "VEC3"
    },
    {
      "bufferView": 3,
      "byteOffset": 1048512,
      "componentType": 5126,
      "count": 65532,
      "max": [
        1.0,
        8.10820438346127e-06,
        0.8634674549102783,
        1.0
      ],
      "min": [
        0.3082877993583679,
        -1.3288648005982395e-05,
        -0.9512931704521179,
        1.0
      ],
      "type": "VEC4"
    },
    {
      "bufferView": 1,
      "byteOffset": 524256,
      "componentType": 5126,
      "count": 65532,
      "max": [
        1.0,
        1.0
      ],
      "min": [
        0.001953125,
        0.666015625
      ],
      "type": "VEC2"
    },
    {
      "bufferView": 0,
      "byteOffset": 1446648,
      "componentType": 5125,
      "count": 370014,
      "type": "SCALAR"
    },
    {
      "bufferView": 2,
      "byteOffset": 3145536,
      "componentType": 5126,
      "count": 65532,
      "max": [
        0.9960861206054688,
        0.7455968856811523,
        0.40846890211105347
      ],
      "min": [
        -1.0,
        -0.9256359934806824,
        0.07085976004600525
      ],
      "type": "VEC3"
    },
    {
      "bufferView": 2,
      "byteOffset": 3931920,
      "componentType": 5126,
      "count": 65532,
      "max": [
        0.9286612272262573,
        0.892105758190155,
        0.9999961853027344
      ],
      "min": [
        -0.8888038992881775,
        -0.9241557121276855,
        0.22948455810546875
      ],
      "type": "VEC3"
    },
    {
      "bufferView": 3,
      "byteOffset": 2097024,
      "componentType": 5126,
      "count": 65532,
      "max": [
        1.0,
        1.1643677680694964e-05,
        0.8893529772758484,
        1.0
      ],
      "min": [
        0.2557196021080017,
        -1.3288648005982395e-05,
        -0.9667510390281677,
        1.0
      ],
      "type": "VEC4"
    },
    {
      "bufferView": 1,
      "byteOffset": 1048512,
      "componentType": 5126,
      "count": 65532,
      "max": [
        0.998046875,
        0.873046875
      ],
      "min": [
        0.001953125,
        0.0390625
      ],
      "type": "VEC2"
    },
    {
      "bufferView": 0,
      "byteOffset": 2926704,
      "componentType": 5125,
      "count": 335799,
      "type": "SCALAR"
    },
    {
      "bufferView": 2,
      "byteOffset": 4718304,
      "componentType": 5126,
      "count": 65532,
      "max": [
        1.0,
        -0.13111549615859985,
        0.34154608845710754
      ],
      "min": [
        -1.0,
        -0.7612525224685669,
        0.07912377268075943
      ],
      "type": "VEC3"
    },
    {
      "bufferView": 2,
      "byteOffset": 5504688,
      "componentType": 5126,
      "count": 65532,
      "max": [
        0.9340723156929016,
        0.88334721326828,
        0.9999992251396179
      ],
      "min": [
        -0.9157910346984863,
        -0.8864811658859253,
        0.3219873011112213
      ],
      "type": "VEC3"
    },
    {
      "bufferView": 3,
      "byteOffset": 3145536,
      "componentType": 5126,
      "count": 65532,
      "max": [
        1.0,
        1.3104175195621792e-05,
        0.9277342557907104,
        1.0
      ],
      "min": [
        0.3307386040687561,
        -1.040513780026231e-05,
        -0.9437224268913269,
        1.0
      ],
      "type": "VEC4"
    },
    {
      "bufferView": 1,
      "byteOffset": 1572768,
      "componentType": 5126,
      "count": 65532,
      "max": [
        1.0,
        0.4355469048023224
      ],
      "min": [
        0.001953125,
        0.12109380215406418
      ],
      "type": "VEC2"
    },
    {
      "bufferView": 0,
      "byteOffset": 4269900,
      "componentType": 5125,
      "count": 351654,
      "type": "SCALAR"
    },
    {
      "bufferView": 2,
      "byteOffset": 6291072,
      "componentType": 5126,
      "count": 30384,
      "max": [
        0.9882583022117615,
        -0.553816020488739,
        0.18444250524044037
      ],
      "min": [
        -1.0,
        -0.9921721816062927,
        0.06492515653371811
      ],
      "type": "VEC3"
    },
    {
      "bufferView": 2,
      "byteOffset": 6655680,
      "componentType": 5126,
      "count": 30384,
      "max": [
        0.8207601308822632,
        0.7701627612113953,
        0.9999998807907104
      ],
      "min": [
        -0.8861318230628967,
        -0.8204714059829712,
        0.4535845220088959
      ],
      "type": "VEC3"
    },
    {
      "bufferView": 3,
      "byteOffset": 4194048,
      "componentType": 5126,
      "count": 30384,
      "max": [
        1.0,
        1.3104175195621792e-05,
        0.8901606798171997,
        1.0
      ],
      "min": [
        0.4556467533111572,
        -6.404542546079028e-06,
        -0.8211078643798828,
        1.0
      ],
      "type": "VEC4"
    },
    {
      "bufferView": 1,
      "byteOffset": 2097024,
      "componentType": 5126,
      "count": 30384,
      "max": [
        0.994140625,
        0.2246094048023224
      ],
      "min": [
        0.001953125,
        0.005859375
      ],
      "type": "VEC2"
    },
    {
      "bufferView": 0,
      "byteOffset": 5676516,
      "componentType": 5125,
      "count": 147597,
      "type": "SCALAR"
    }
  ],
  "asset": {
    "extras": {
      "author": "solararchitect (https://sketchfab.com/solararchitect)",
      "license": "CC-BY-4.0 (http://creativecommons.org/licenses/by/4.0/)",
      "source": "https://sketchfab.com/3d-models/hero-mountain-83b3fd690ea44e988d086d5165a5f2ca",
      "title": "Hero Mountain"
    },
    "generator": "Sketchfab-12.66.0",
    "version": "2.0"
  },
  "bufferViews": [
    {
      "buffer": 0,
      "byteLength": 6266904,
      "name": "floatBufferViews",
      "target": 34963
    },
    {
      "buffer": 0,
      "byteLength": 2340096,
      "byteOffset": 6266904,
      "byteStride": 8,
      "name": "floatBufferViews",
      "target": 34962
    },
    {
      "buffer": 0,
      "byteLength": 7020288,
      "byteOffset": 8607000,
      "byteStride": 12,
      "name": "floatBufferViews",
      "target": 34962
    },
    {
      "buffer": 0,
      "byteLength": 4680192,
      "byteOffset": 15627288,
      "byteStride": 16,
      "name": "floatBufferViews",
      "target": 34962
    }
  ],
  "buffers": [
    {
      "byteLength": 20307480,
      "uri": "scene.bin"
    }
  ],
  "images": [
    {
      "uri": "textures/material_0_baseColor.jpeg"
    },
    {
      "uri": "textures/material_0_metallicRoughness.png"
    },
    {
      "uri": "textures/material_0_normal.png"
    }
  ],
  "materials": [
    {
      "doubleSided": true,
      "name": "material_0",
      "normalTexture": {
        "index": 2
      },
      "occlusionTexture": {
        "index": 1
      },
      "pbrMetallicRoughness": {
        "baseColorTexture": {
          "index": 0
        },
        "metallicFactor": 0.0,
        "metallicRoughnessTexture": {
          "index": 1
        }
      }
    }
  ],
  "meshes": [
    {
      "name": "Object_0",
      "primitives": [
        {
          "attributes": {
            "NORMAL": 1,
            "POSITION": 0,
            "TANGENT": 2,
            "TEXCOORD_0": 3
          },
          "indices": 4,
          "material": 0,
          "mode": 4
        }
      ]
    },
    {
      "name": "Object_1",
      "primitives": [
        {
          "attributes": {
            "NORMAL": 6,
            "POSITION": 5,
            "TANGENT": 7,
            "TEXCOORD_0": 8
          },
          "indices": 9,
          "material": 0,
          "mode": 4
        }
      ]
    },
    {
      "name": "Object_2",
      "primitives": [
        {
          "attributes": {
            "NORMAL": 11,
            "POSITION": 10,
            "TANGENT": 12,
            "TEXCOORD_0": 13
          },
          "indices": 14,
          "material": 0,
          "mode": 4
        }
      ]
    },
    {
      "name": "Object_3",
      "primitives": [
        {
          "attributes": {
            "NORMAL": 16,
            "POSITION": 15,
            "TANGENT": 17,
            "TEXCOORD_0": 18
          },
          "indices": 19,
          "material": 0,
          "mode": 4
        }
      ]
    },
    {
      "name": "Object_4",
      "primitives": [
        {
          "attributes": {
            "NORMAL": 21,
            "POSITION": 20,
            "TANGENT": 22,
            "TEXCOORD_0": 23
          },
          "indices": 24,
          "material": 0,
          "mode": 4
        }
      ]
    }
  ],
  "nodes": [
    {
      "children": [
        1
      ],
      "matrix": [
        1.0,
        0.0,
        0.0,
        0.0,
        0.0,
        2.220446049250313e-16,
        -1.0,
        0.0,
        0.0,
        1.0,
        2.220446049250313e-16,
        0.0,
        0.0,
        0.0,
        0.0,
        1.0
      ],
      "name": "Sketchfab_model"
    },
    {
      "children": [
        2,
        3,
        4,
        5,
        6
      ],
      "name": "Mesh_05K_hero_mountain01.obj.cleaner.materialmerger.gles"
    },
    {
      "mesh": 0,
      "name": "Object_2"
    },
    {
      "mesh": 1,
      "name": "Object_3"
    },
    {
      "mesh": 2,
      "name": "Object_4"
    },
    {
      "mesh": 3,
      "name": "Object_5"
    },
    {
      "mesh": 4,
      "name": "Object_6"
    }
  ],
  "samplers": [
    {
      "magFilter": 9729,
      "minFilter": 9987,
      "wrapS": 10497,
      "wrapT": 10497
    }
  ],
  "scene": 0,
  "scenes": [
    {
      "name": "Sketchfab_Scene",
      "nodes": [
        0
      ]
    }
  ],
  "textures": [
    {
      "sampler": 0,
      "source": 0
    },
    {
      "sampler": 0,
      "source": 1
    },
    {
      "sampler": 0,
      "source": 2
    }
  ]
}
