{
  "accessors": [
    {
      "bufferView": 1,
      "componentType": 5126,
      "count": 65532,
      "max": [
        1.0000351667404175,
        1.0000351667404175,
        0.6005063652992249
      ],
      "min": [
        -1.0000351667404175,
        -1.0000351667404175,
        -3.2887167930603027
      ],
      "type": "VEC3"
    },
    {
      "bufferView": 1,
      "byteOffset": 786384,
      "componentType": 5126,
      "count": 65532,
      "max": [
        0.9999781847000122,
        0.9999926686286926,
        0.9999932050704956
      ],
      "min": [
        -0.9999999403953552,
        -0.9999988675117493,
        -0.9999738931655884
      ],
      "type": "VEC3"
    },
    {
      "bufferView": 0,
      "componentType": 5125,
      "count": 301080,
      "type": "SCALAR"
    },
    {
      "bufferView": 1,
      "byteOffset": 1572768,
      "componentType": 5126,
      "count": 65532,
      "max": [
        0.9559153318405151,
        0.9443709254264832,
        0.5012952089309692
      ],
      "min": [
        -0.9099079370498657,
        -0.895687460899353,
        -4.674760341644287
      ],
      "type": "VEC3"
    },
    {
      "bufferView": 1,
      "byteOffset": 2359152,
      "componentType": 5126,
      "count": 65532,
      "max": [
        0.9999910593032837,
        0.9999945163726807,
        0.9998769164085388
      ],
      "min": [
        -0.9999948740005493,
        -0.9999976754188538,
        -0.999964714050293
      ],
      "type": "VEC3"
    },
    {
      "bufferView": 0,
      "byteOffset": 1204320,
      "componentType": 5125,
      "count": 373356,
      "type": "SCALAR"
    },
    {
      "bufferView": 1,
      "byteOffset": 3145536,
      "componentType": 5126,
      "count": 51312,
      "max": [
        0.9708248376846313,
        0.9155707955360413,
        0.6334737539291382
      ],
      "min": [
        -0.9826895594596863,
        -0.9037574529647827,
        -2.6966936588287354
      ],
      "type": "VEC3"
    },
    {
      "bufferView": 1,
      "byteOffset": 3761280,
      "componentType": 5126,
      "count": 51312,
      "max": [
        0.9999972581863403,
        0.9998278021812439,
        0.9998003840446472
      ],
      "min": [
        -0.9989579319953918,
        -0.9996153116226196,
        -0.9999696016311646
      ],
      "type": "VEC3"
    },
    {
      "bufferView": 0,
      "byteOffset": 2697744,
      "componentType": 5125,
      "count": 118752,
      "type": "SCALAR"
    }
  ],
  "asset": {
    "extras": {
      "author": "MrDeivid (https://sketchfab.com/MrDeivid)",
      "license": "CC-BY-4.0 (http://creativecommons.org/licenses/by/4.0/)",
      "source": "https://sketchfab.com/3d-models/jellyfish-c8ba1a3e4ca54af099e62cd89ba1b661",
      "title": "Jellyfish"
    },
    "generator": "Sketchfab-15.77.0",
    "version": "2.0"
  },
  "bufferViews": [
    {
      "buffer": 0,
      "byteLength": 3172752,
      "name": "floatBufferViews",
      "target": 34963
    },
    {
      "buffer": 0,
      "byteLength": 4377024,
      "byteOffset": 3172752,
      "byteStride": 12,
      "name": "floatBufferViews",
      "target": 34962
    }
  ],
  "buffers": [
    {
      "byteLength": 7549776,
      "uri": "scene.bin"
    }
  ],
  "extensionsUsed": [
    "KHR_materials_emissive_strength",
    "KHR_materials_clearcoat"
  ],
  "materials": [
    {
      "alphaMode": "BLEND",
      "doubleSided": true,
      "emissiveFactor": [
        0.21404114048223255,
        0.08278013630699908,
        0.13659774937962504
      ],
      "extensions": {
        "KHR_materials_clearcoat": {
          "clearcoatFactor": 0.6384781363143202,
          "clearcoatRoughnessFactor": 0.04
        },
        "KHR_materials_emissive_strength": {
          "emissiveStrength": 2.1790542599748877
        }
      },
      "name": "Material",
      "pbrMetallicRoughness": {
        "baseColorFactor": [
          0.502324,
          0.63193,
          0.800063,
          0.24838170935378087
        ],
        "metallicFactor": 0.0,
        "roughnessFactor": 0.8050408492696455
      }
    }
  ],
  "meshes": [
    {
      "name": "Cube.002_Material_0",
      "primitives": [
        {
          "attributes": {
            "NORMAL": 1,
            "POSITION": 0
          },
          "indices": 2,
          "material": 0,
          "mode": 4
        }
      ]
    },
    {
      "name": "Cube.002_Material_0",
      "primitives": [
        {
          "attributes": {
            "NORMAL": 4,
            "POSITION": 3
          },
          "indices": 5,
          "material": 0,
          "mode": 4
        }
      ]
    },
    {
      "name": "Cube.002_Material_0",
      "primitives": [
        {
          "attributes": {
            "NORMAL": 7,
            "POSITION": 6
          },
          "indices": 8,
          "material": 0,
          "mode": 4
        }
      ]
    }
  ],
  "nodes": [
    {
      "children": [
        1
      ],
      "matrix": [
        1.0,
        0.0,
        0.0,
        0.0,
        0.0,
        2.220446049250313e-16,
        -1.0,
        0.0,
        0.0,
        1.0,
        2.220446049250313e-16,
        0.0,
        0.0,
        0.0,
        0.0,
        1.0
      ],
      "name": "Sketchfab_model"
    },
    {
      "children": [
        2
      ],
      "matrix": [
        0.009999999776482582,
        0.0,
        0.0,
        0.0,
        0.0,
        0.0,
        0.009999999776482582,
        0.0,
        0.0,
        -0.009999999776482582,
        0.0,
        0.0,
        0.0,
        0.0,
        0.0,
        1.0
      ],
      "name": "Jellyfish.fbx"
    },
    {
      "children": [
        3
      ],
      "name": "Object_2"
    },
    {
      "children": [
        4
      ],
      "name": "RootNode"
    },
    {
      "children": [
        5,
        6,
        7
      ],
      "name": "Cube.002",
      "rotation": [
        -0.7071068286895752,
        0.0,
        0.0,
        0.7071067094802856
      ],
      "scale": [
        100.0,
        100.0,
        100.0
      ]
    },
    {
      "mesh": 0,
      "name": "Cube.002_Material_0"
    },
    {
      "mesh": 1,
      "name": "Cube.002_Material_0"
    },
    {
      "mesh": 2,
      "name": "Cube.002_Material_0"
    }
  ],
  "scene": 0,
  "scenes": [
    {
      "name": "Sketchfab_Scene",
      "nodes": [
        0
      ]
    }
  ]
}
